<svg width="160" height="160" viewBox="0 0 160 160" fill="none" xmlns="http://www.w3.org/2000/svg">
<g clip-path="url(#clip0_139_45)">
<path d="M65.4398 67.1466C65.4165 65.5787 65.0733 64.032 64.4313 62.6013C63.7894 61.1707 62.8622 59.8863 61.7064 58.8266C60.2953 57.4917 58.5788 56.5228 56.7067 56.0045C54.8347 55.4862 52.8642 55.4342 50.9675 55.8533C49.0707 56.2723 47.3056 57.1495 45.8262 58.4083C44.3468 59.6671 43.1982 61.2692 42.4808 63.0743C41.7634 64.8795 41.4991 66.8327 41.711 68.7636C41.9228 70.6945 42.6043 72.5441 43.696 74.1508C44.7877 75.7575 46.2562 77.0723 47.9733 77.9804C49.6905 78.8884 51.6041 79.362 53.5466 79.3598H53.9199C55.4796 79.3184 57.0156 78.9693 58.4398 78.3323C59.864 77.6953 61.1482 76.7832 62.2188 75.6482C63.2893 74.5132 64.125 73.1778 64.6778 71.7188C65.2305 70.2598 65.4895 68.706 65.4398 67.1466ZM51.3597 69.8132C50.742 69.2279 50.3782 68.4236 50.3464 67.5732C50.347 66.7214 50.6713 65.9018 51.2533 65.2799C51.8387 64.6621 52.6427 64.2983 53.4932 64.2665V64.2665C54.2864 64.2719 55.0482 64.5767 55.6263 65.1199C55.9369 65.4061 56.1869 65.752 56.361 66.1368C56.5351 66.5216 56.6298 66.9375 56.6397 67.3598C56.6709 67.7809 56.6108 68.2039 56.4636 68.5997C56.3163 68.9955 56.0854 69.3549 55.7865 69.6532C55.482 69.9837 55.1103 70.2451 54.6963 70.4198C54.2823 70.5946 53.8356 70.6789 53.3864 70.6666C52.6258 70.6557 51.8991 70.3497 51.3597 69.8132V69.8132Z" fill="white"/>
<path d="M106.08 54.08C104.517 54.1057 102.976 54.4447 101.547 55.0768C100.118 55.7089 98.83 56.6213 97.7599 57.7601C96.6797 58.8962 95.836 60.2356 95.2775 61.7005C94.719 63.1653 94.457 64.7265 94.5067 66.2934C94.6165 69.3831 95.9146 72.3113 98.1304 74.4674C100.346 76.6235 103.308 77.8411 106.4 77.8667H106.72C109.878 77.7713 112.869 76.429 115.04 74.1334C116.12 72.9973 116.964 71.6579 117.522 70.193C118.081 68.7281 118.343 67.167 118.293 65.6001C118.198 62.4422 116.856 59.4507 114.56 57.2801C112.248 55.1652 109.212 54.0195 106.08 54.08V54.08ZM103.2 66.0267C103.179 65.6065 103.243 65.1864 103.39 64.7921C103.537 64.3978 103.763 64.0375 104.053 63.7334C104.352 63.4284 104.709 63.1865 105.103 63.0216C105.497 62.8567 105.92 62.7723 106.347 62.7734V62.7734C106.745 62.7747 107.138 62.8557 107.505 63.0114C107.871 63.1671 108.203 63.3945 108.48 63.6801C108.796 63.9624 109.049 64.3073 109.223 64.693C109.398 65.0787 109.49 65.4967 109.493 65.92C109.515 66.3402 109.45 66.7604 109.303 67.1547C109.156 67.5491 108.931 67.9092 108.64 68.2133C108.012 68.8332 107.175 69.1949 106.293 69.2267C105.449 69.213 104.643 68.8714 104.046 68.2742C103.449 67.677 103.107 66.8711 103.093 66.0267H103.2Z" fill="white"/>
<path d="M80 0C64.1775 0 48.7103 4.69191 35.5544 13.4824C22.3985 22.2729 12.1449 34.7672 6.08988 49.3853C0.0348663 64.0033 -1.54968 80.0886 1.53714 95.6071C4.62396 111.126 12.2435 125.38 23.4317 136.569C34.6199 147.757 48.8745 155.376 64.3929 158.463C79.9114 161.55 95.9969 159.965 110.615 153.91C125.233 147.855 137.727 137.602 146.518 124.446C155.308 111.29 160 95.8225 160 80C160 58.7827 151.572 38.4344 136.569 23.4315C121.566 8.42857 101.217 0 80 0ZM80 8.6932C94.1032 8.6932 107.89 12.8753 119.616 20.7106C131.342 28.5459 140.482 39.6825 145.879 52.7121C151.276 65.7417 152.688 80.079 149.937 93.9111C147.185 107.743 140.394 120.449 130.422 130.421C120.449 140.394 107.744 147.185 93.9115 149.937C80.0794 152.688 65.7419 151.276 52.7123 145.879C39.6827 140.482 28.5459 131.342 20.7106 119.616C12.8754 107.889 8.69339 94.1031 8.69339 80C8.72161 61.097 16.2433 42.9762 29.6097 29.6097C42.9762 16.2432 61.097 8.72141 80 8.6932V8.6932Z" fill="white"/>
<path d="M30.1332 45.5465C37.1081 46.7777 43.974 48.5611 50.6664 50.8799C56.9906 53.0765 62.7092 56.7306 67.3597 61.5466C67.7714 61.9823 68.2673 62.33 68.8174 62.5684C69.3675 62.8067 69.9604 62.9309 70.5599 62.9333C71.639 62.9167 72.6776 62.5201 73.4932 61.8133C74.2977 60.9953 74.7484 59.8939 74.7484 58.7466C74.7484 57.5993 74.2977 56.498 73.4932 55.68C67.9343 49.8648 61.0821 45.4428 53.4932 42.7733C46.3444 40.2827 39.0167 38.3393 31.5733 36.96H30.7198C29.7267 36.96 28.7631 37.2979 27.9877 37.9183C27.2122 38.5387 26.6711 39.4044 26.4531 40.3732C26.3386 40.9562 26.344 41.5564 26.4691 42.1372C26.5942 42.718 26.8363 43.267 27.1807 43.7511C27.5251 44.2352 27.9644 44.6441 28.472 44.9528C28.9796 45.2615 29.5449 45.4635 30.1332 45.5465Z" fill="white"/>
<path d="M89.3864 62.9867C90.6114 62.9721 91.7808 62.4736 92.6397 61.6C97.275 56.791 102.975 53.1374 109.28 50.9333C115.992 48.621 122.876 46.8377 129.867 45.6C130.974 45.4426 131.978 44.8616 132.665 43.9792C133.353 43.0969 133.672 41.982 133.555 40.8694C133.437 39.7568 132.893 38.7331 132.036 38.0139C131.179 37.2947 130.076 36.9361 128.96 37.0134C128.66 36.9617 128.353 36.9617 128.053 37.0134C120.624 38.3573 113.313 40.2831 106.187 42.7734C98.6047 45.4572 91.7556 49.8772 86.1866 55.6801C85.382 56.4981 84.931 57.5993 84.931 58.7467C84.931 59.894 85.382 60.9954 86.1866 61.8134C87.0629 62.601 88.2087 63.0212 89.3864 62.9867Z" fill="white"/>
<path d="M62.5068 91.0399C61.9387 91.0282 61.3743 91.1362 60.8506 91.3568C60.3269 91.5773 59.8555 91.9054 59.4668 92.32C59.0621 92.7215 58.7407 93.1992 58.5215 93.7256C58.3023 94.2519 58.1895 94.8164 58.1895 95.3865C58.1895 95.9567 58.3023 96.5213 58.5215 97.0477C58.7407 97.574 59.0621 98.0517 59.4668 98.4533L73.8135 112.853L60.4268 126.24C59.6347 127.064 59.1924 128.163 59.1924 129.307C59.1924 130.45 59.6347 131.549 60.4268 132.373C60.8294 132.784 61.3112 133.109 61.8428 133.329C62.3744 133.549 62.9449 133.66 63.5202 133.653C64.0883 133.665 64.6524 133.557 65.1761 133.336C65.6998 133.116 66.1715 132.788 66.5602 132.373L80 118.987L94.3467 133.387C94.7528 133.793 95.2352 134.115 95.766 134.335C96.2967 134.555 96.8656 134.668 97.4401 134.668C98.0146 134.668 98.5835 134.555 99.1143 134.335C99.645 134.115 100.127 133.793 100.534 133.387C100.938 132.985 101.259 132.507 101.479 131.981C101.698 131.455 101.811 130.89 101.811 130.32C101.811 129.75 101.698 129.185 101.479 128.659C101.259 128.132 100.938 127.655 100.534 127.253L86.1335 112.853L99.5202 99.4666C100.14 98.8623 100.565 98.0856 100.738 97.2373C100.911 96.3889 100.826 95.5081 100.492 94.709C100.159 93.9099 99.5927 93.2294 98.8678 92.7558C98.1429 92.2823 97.2925 92.0375 96.4268 92.0532C95.2916 92.0468 94.1995 92.4875 93.3867 93.2799L80 106.72L65.7601 92.1066C65.3209 91.7138 64.805 91.4161 64.2451 91.2326C63.6852 91.049 63.0934 90.9834 62.5068 91.0399V91.0399Z" fill="white"/>
</g>
<defs>
<clipPath id="clip0_139_45">
<rect width="160" height="160" fill="white"/>
</clipPath>
</defs>
</svg>
