<svg width="160" height="160" viewBox="0 0 160 160" fill="none" xmlns="http://www.w3.org/2000/svg">
<g clip-path="url(#clip0_139_62)">
<path d="M95.0992 75.6027C94.4563 75.2255 93.7252 75.0246 92.9799 75.02C92.1925 75.0264 91.4218 75.2466 90.75 75.6572C90.0781 76.0678 89.5303 76.6534 89.1655 77.3512C88.8926 77.8486 88.7237 78.3962 88.6691 78.9609C88.6145 79.5255 88.6752 80.0954 88.8476 80.6359C88.9997 81.1853 89.2609 81.6983 89.6159 82.1444C89.9709 82.5905 90.4123 82.9604 90.9136 83.2319C94.1475 84.7704 97.1306 86.7888 99.7615 89.2187C100.731 90.1234 101.479 91.2391 101.947 92.4795C102.416 93.7198 102.592 95.0514 102.464 96.371C102.13 97.6169 101.459 98.7463 100.524 99.6346C99.589 100.523 98.4268 101.135 97.1655 101.404C95.7129 101.682 94.2207 101.682 92.7681 101.404C92.0994 101.323 91.4234 101.323 90.7548 101.404C88.8786 101.344 87.0292 101.862 85.4568 102.887C84.4323 103.537 83.5512 104.389 82.8679 105.391C82.1846 106.393 81.7136 107.524 81.4833 108.715C81.2489 110.014 80.7215 111.243 79.9412 112.308C79.1608 113.373 78.1483 114.246 76.9801 114.861C75.9311 115.397 74.7673 115.67 73.5893 115.656C72.1427 115.675 70.7138 115.336 69.4292 114.671C68.1446 114.006 67.0441 113.034 66.225 111.841C65.2914 110.414 64.8454 108.722 64.9535 107.02C65.0154 106.461 64.9626 105.896 64.7986 105.359C64.6346 104.821 64.363 104.323 63.9999 103.894C63.1392 102.947 61.9403 102.376 60.6621 102.305C59.5714 102.301 58.5189 102.707 57.714 103.443C56.9092 104.179 56.4108 105.192 56.3177 106.278C56.0312 109.896 56.9434 113.508 58.9137 116.556C60.5185 118.973 62.7013 120.951 65.2639 122.311C67.8266 123.671 70.6882 124.37 73.5893 124.345C76.0867 124.371 78.5551 123.808 80.7945 122.702C83.1754 121.504 85.2463 119.77 86.8456 117.638C88.4449 115.506 89.5291 113.032 90.013 110.411H89.5364H90.6487C92.1047 110.77 93.5996 110.948 95.0992 110.941C96.2928 110.954 97.4838 110.829 98.6488 110.57C101.644 109.995 104.41 108.57 106.618 106.465C108.826 104.361 110.381 101.666 111.099 98.7021C111.496 96.012 111.251 93.2663 110.385 90.6885C109.52 88.1107 108.058 85.7737 106.119 83.8676C102.928 80.5229 99.2037 77.7302 95.0992 75.6027V75.6027Z" fill="black"/>
<path d="M79.9999 1.75512e-05C64.1752 -0.0104624 48.703 4.67255 35.5401 13.4567C22.3772 22.2408 12.1149 34.7314 6.05181 49.3486C-0.0113219 63.9658 -1.60302 80.0528 1.47781 95.5748C4.55865 111.097 12.1738 125.356 23.3599 136.55C34.546 147.743 48.8003 155.368 64.3203 158.459C79.8402 161.55 95.9283 159.969 110.549 153.915C125.171 147.862 137.668 137.608 146.461 124.451C155.254 111.294 159.947 95.8248 159.947 80C159.919 58.8005 151.489 38.4763 136.503 23.481C121.518 8.48569 101.199 0.0420617 79.9999 1.75512e-05V1.75512e-05ZM79.9999 151.311C65.8959 151.311 52.1086 147.129 40.3815 139.293C28.6545 131.457 19.5146 120.32 14.1172 107.29C8.71981 94.2592 7.30739 79.9209 10.059 66.0879C12.8105 52.2549 19.6023 39.5484 29.5753 29.5753C39.5484 19.6023 52.2547 12.8105 66.0878 10.0589C79.9208 7.30737 94.2592 8.71962 107.29 14.117C120.32 19.5144 131.457 28.6544 139.293 40.3815C147.129 52.1086 151.311 65.896 151.311 80C151.297 98.9087 143.78 117.039 130.409 130.409C117.039 143.78 98.9085 151.297 79.9999 151.311Z" fill="black"/>
<path d="M45.8803 42.2781C43.135 42.2781 40.4514 43.0922 38.1687 44.6175C35.886 46.1427 34.1069 48.3105 33.0563 50.8469C32.0057 53.3833 31.7307 56.1744 32.2663 58.867C32.8019 61.5596 34.124 64.0328 36.0652 65.9741C38.0065 67.9154 40.4799 69.2374 43.1725 69.773C45.8651 70.3086 48.6562 70.0338 51.1926 68.9832C53.7289 67.9326 55.8966 66.1535 57.4219 63.8708C58.9471 61.5881 59.7614 58.9044 59.7614 56.159C59.7614 52.4776 58.2989 48.9469 55.6957 46.3437C53.0926 43.7406 49.5617 42.2781 45.8803 42.2781V42.2781ZM45.8803 61.351C44.8325 61.351 43.8083 61.0403 42.9371 60.4581C42.0658 59.876 41.3869 59.0485 40.9859 58.0804C40.5849 57.1124 40.4797 56.0472 40.6842 55.0195C40.8886 53.9918 41.3932 53.0477 42.1341 52.3068C42.8751 51.5658 43.8191 51.0612 44.8469 50.8568C45.8746 50.6524 46.9397 50.7573 47.9078 51.1583C48.8759 51.5593 49.7034 52.2383 50.2855 53.1095C50.8677 53.9808 51.1783 55.0051 51.1783 56.0529C51.1783 57.4581 50.6204 58.8057 49.6268 59.7993C48.6333 60.7929 47.2854 61.351 45.8803 61.351Z" fill="black"/>
<path d="M125.298 63.7882L108.451 56.7947C112.16 53.7101 116.033 50.8273 120.053 48.159C120.534 47.8506 120.946 47.447 121.265 46.9732C121.584 46.4994 121.803 45.9655 121.907 45.404C122.12 44.2681 121.892 43.0938 121.272 42.1191C120.871 41.5199 120.327 41.0311 119.688 40.6978C119.049 40.3645 118.336 40.1974 117.616 40.2119C116.77 40.1952 115.939 40.4354 115.232 40.9007C109.451 44.7515 103.946 49.0002 98.7551 53.6159C97.9799 54.2412 97.3847 55.0613 97.0309 55.9923C96.6771 56.9233 96.5775 57.9316 96.7418 58.9139C96.9261 59.8688 97.3695 60.7544 98.0236 61.474C98.6778 62.1936 99.5175 62.7192 100.451 62.9933L122.013 71.8941C122.523 72.1477 123.087 72.2747 123.656 72.2649C124.518 72.2588 125.359 71.9994 126.075 71.519C126.791 71.0386 127.35 70.3585 127.682 69.563C128.104 68.4904 128.104 67.2977 127.682 66.2252C127.481 65.6728 127.164 65.1696 126.753 64.7494C126.342 64.3291 125.846 64.0014 125.298 63.7882V63.7882Z" fill="black"/>
</g>
<defs>
<clipPath id="clip0_139_62">
<rect width="160" height="160" fill="white"/>
</clipPath>
</defs>
</svg>
