<svg width="161" height="160" viewBox="0 0 161 160" fill="none" xmlns="http://www.w3.org/2000/svg">
<path d="M80.0192 160C64.1929 160 48.722 155.308 35.563 146.518C22.4039 137.727 12.1475 125.233 6.09109 110.615C0.0346336 95.9966 -1.54996 79.9112 1.53759 64.3927C4.62515 48.8742 12.2461 34.6196 23.437 23.4314C34.6279 12.2432 48.8859 4.62405 64.408 1.53723C79.9302 -1.54959 96.0195 0.0346254 110.641 6.08964C125.263 12.1446 137.76 22.3984 146.553 35.5543C155.345 48.7103 160.038 64.1775 160.038 80C160.038 101.217 151.608 121.566 136.601 136.569C121.595 151.571 101.242 160 80.0192 160V160ZM80.0192 8.15995C65.8072 8.15995 51.9144 12.3733 40.0976 20.2672C28.2807 28.1611 19.0703 39.3811 13.6316 52.5081C8.19292 65.6352 6.77013 80.0797 9.54276 94.0153C12.3154 107.951 19.1592 120.752 29.2086 130.799C39.258 140.846 52.0616 147.688 66.0005 150.46C79.9395 153.232 94.3874 151.809 107.518 146.372C120.648 140.934 131.87 131.726 139.766 119.912C147.662 108.098 151.876 94.2086 151.876 80C151.848 60.9555 144.268 42.6991 130.799 29.2325C117.329 15.766 99.0682 8.18816 80.0192 8.15995Z" fill="white"/>
<path d="M105.572 111.146C104.86 111.162 104.153 111.035 103.491 110.773L89.8344 105.76C86.5833 104.59 83.1539 103.995 79.6989 104C76.2214 103.991 72.7704 104.605 69.5096 105.813L56.1731 110.773C55.4849 111.005 54.7655 111.131 54.0394 111.146C53.1743 111.141 52.3203 110.949 51.5359 110.585C50.7514 110.22 50.0548 109.691 49.4931 109.033C48.9313 108.375 48.5178 107.605 48.2806 106.773C48.0433 105.941 47.9876 105.068 48.1178 104.213C49.7886 97.0641 53.8288 90.6903 59.5818 86.1278C65.3347 81.5652 72.4621 79.082 79.8053 79.082C87.1486 79.082 94.276 81.5652 100.029 86.1278C105.782 90.6903 109.822 97.0641 111.493 104.213C111.645 105.256 111.524 106.321 111.14 107.302C110.757 108.284 110.125 109.149 109.306 109.813C108.247 110.666 106.931 111.136 105.572 111.146V111.146ZM79.6989 95.8397C84.1051 95.8209 88.4785 96.5978 92.6085 98.133L102.477 101.706C100.48 97.3751 97.2829 93.7066 93.2649 91.1353C89.2469 88.5639 84.576 87.1974 79.8053 87.1974C75.0346 87.1974 70.3641 88.5639 66.3461 91.1353C62.328 93.7066 59.1308 97.3751 57.1332 101.706L66.6824 98.133C70.8585 96.6316 75.2609 95.856 79.6989 95.8397V95.8397Z" fill="white"/>
<path d="M51.5322 73.8665C46.1976 73.8665 41.7167 67.8398 41.7167 60.1598C41.7167 52.4798 46.0375 46.5065 51.5322 46.5065C57.0268 46.5065 61.2946 52.4798 61.2946 60.1598C61.2946 67.8398 56.9735 73.8665 51.5322 73.8665ZM51.5322 54.7733C50.3264 56.2781 49.7355 58.1837 49.8785 60.1066C49.7791 61.1146 49.889 62.1321 50.2011 63.0957C50.5132 64.0593 51.0209 64.9481 51.6924 65.7065C52.6568 63.999 53.1534 62.0674 53.1325 60.1066C53.234 58.23 52.667 56.3781 51.5322 54.8799V54.7733Z" fill="white"/>
<path d="M108.506 73.8665C103.171 73.8665 98.6902 67.8398 98.6902 60.1598C98.6902 52.4798 103.011 46.5065 108.506 46.5065C114 46.5065 118.268 52.4798 118.268 60.1598C118.268 67.8398 114 73.8665 108.506 73.8665ZM108.506 54.7733C107.323 56.2902 106.735 58.1868 106.852 60.1066C106.743 61.1193 106.853 62.1437 107.175 63.11C107.497 64.0763 108.024 64.9619 108.719 65.7065C109.622 63.9774 110.098 62.0572 110.106 60.1066C110.208 58.23 109.641 56.3781 108.506 54.8799V54.7733Z" fill="white"/>
<path d="M61.2945 57.8131C60.485 57.8211 59.6916 57.5867 59.0166 57.1399C58.3415 56.6932 57.8156 56.0546 57.5068 55.3064C55.6402 50.999 52.6202 47.2905 48.7798 44.5896C44.9393 41.8888 40.4277 40.3004 35.7418 39.9998C34.6619 39.9396 33.6476 39.4614 32.9143 38.6665C32.5489 38.274 32.266 37.8121 32.0827 37.3082C31.8995 36.8043 31.8194 36.2687 31.8473 35.7332C31.9021 34.6814 32.3589 33.6909 33.1234 32.9663C33.8878 32.2417 34.9017 31.8384 35.9551 31.8398C42.2313 32.1678 48.2892 34.2515 53.4387 37.8535C58.5883 41.4554 62.6228 46.431 65.0821 52.2132C65.488 53.2179 65.48 54.3421 65.0603 55.3411C64.6407 56.3401 63.843 57.1328 62.8414 57.5465C62.35 57.7424 61.8231 57.8332 61.2945 57.8131V57.8131Z" fill="white"/>
<path d="M98.6903 57.8132C98.1619 57.8287 97.6356 57.7381 97.143 57.5466C96.1505 57.1219 95.362 56.3282 94.9439 55.333C94.5259 54.3379 94.511 53.2191 94.9026 52.2132C97.35 46.4544 101.36 41.4948 106.479 37.8946C111.597 34.2944 117.621 32.1971 123.869 31.8399V31.8399C124.95 31.7963 126.005 32.1808 126.804 32.9097C127.603 33.6386 128.082 34.6533 128.137 35.7333C128.165 36.2687 128.085 36.8044 127.902 37.3083C127.718 37.8122 127.436 38.274 127.07 38.6665C126.715 39.0695 126.281 39.3958 125.794 39.625C125.308 39.8543 124.78 39.9818 124.243 39.9999C119.557 40.3005 115.045 41.8888 111.205 44.5897C107.364 47.2906 104.344 50.999 102.478 55.3065C102.169 56.0546 101.643 56.6933 100.968 57.14C100.293 57.5867 99.4998 57.8212 98.6903 57.8132Z" fill="white"/>
</svg>
