<svg width="161" height="160" viewBox="0 0 161 160" fill="none" xmlns="http://www.w3.org/2000/svg">
<path d="M62.1849 128.314C60.2481 128.324 58.3284 127.951 56.5364 127.216C54.6609 126.405 53.0337 125.112 51.821 123.468C50.6082 121.824 49.8533 119.887 49.6327 117.856C49.6071 117.386 49.6071 116.915 49.6327 116.445C49.0574 104.628 58.053 96.4708 67.8331 89.3597L69.559 88.1048C72.8125 85.1751 76.7814 83.1551 81.0651 82.2486C81.6742 82.197 82.2864 82.197 82.8955 82.2486C85.6126 82.515 88.2442 83.3455 90.6218 84.687C92.9993 86.0286 95.0705 87.8516 96.7028 90.0394C100.05 93.745 103.093 97.7144 105.803 101.909C110.353 108.915 111.399 114.981 108.889 119.896C107.544 122.183 105.614 124.071 103.298 125.367C100.982 126.663 98.3626 127.319 95.7091 127.268H95.0815C91.7658 127.146 88.4792 126.601 85.3014 125.647L83.1049 125.124C81.2444 124.628 79.3294 124.365 77.4041 124.34C76.7601 124.286 76.1129 124.286 75.469 124.34C74.2828 124.475 73.1213 124.775 72.0173 125.229C71.4742 125.448 70.9493 125.71 70.4481 126.013C69.5433 126.539 68.5992 126.994 67.624 127.373C65.8808 128.005 64.0393 128.324 62.1849 128.314V128.314ZM82.7388 89.8303H82.0065C79.0505 90.6278 76.3259 92.1152 74.0568 94.1702L72.1741 95.5819C64.1721 101.386 56.7979 107.869 57.164 115.974C57.164 116.288 57.164 116.549 57.164 116.863C57.2162 117.555 57.4589 118.219 57.865 118.782C58.2711 119.345 58.8248 119.785 59.4652 120.052C60.2957 120.391 61.1832 120.569 62.0802 120.575C63.0074 120.58 63.9283 120.421 64.7999 120.105L66.5779 119.216C67.3428 118.825 68.1285 118.476 68.9315 118.17C70.6049 117.46 72.3626 116.968 74.1615 116.706C75.137 116.653 76.1147 116.653 77.0903 116.706C79.6109 116.735 82.12 117.051 84.5691 117.647L86.6613 118.223C89.3349 118.999 92.0912 119.455 94.8724 119.582C96.1547 119.664 97.4368 119.42 98.5986 118.871C99.7604 118.322 100.764 117.487 101.514 116.445C102.717 114.196 101.776 110.641 98.8993 105.987C96.3862 102.127 93.5707 98.4732 90.4791 95.059C88.6602 92.3931 85.8914 90.5226 82.7388 89.8303V89.8303Z" fill="white"/>
<path d="M62.1847 126.745C60.3907 126.788 58.6079 126.45 56.9547 125.752C55.3289 125.047 53.9169 123.927 52.8611 122.505C51.8054 121.082 51.1429 119.407 50.9401 117.647C50.9401 117.229 50.9401 116.758 50.9401 116.34C50.4171 105.307 59.0465 97.4639 68.5128 90.6665L70.2388 89.3593C73.2966 86.61 77.0044 84.6847 81.0126 83.7646C83.7982 83.693 86.5583 84.3092 89.0488 85.5587C91.5393 86.8082 93.6831 88.6524 95.2904 90.928C98.5823 94.5849 101.573 98.5017 104.234 102.64C108.47 109.124 109.464 114.667 107.215 119.006C105.997 121.042 104.262 122.719 102.186 123.867C100.11 125.015 97.767 125.593 95.3951 125.542C91.99 125.459 88.6121 124.913 85.3536 123.921L83.3138 123.451C80.6448 122.705 77.8581 122.474 75.1027 122.771C73.7766 122.941 72.4767 123.275 71.2325 123.765L69.5589 124.653C68.7221 125.072 67.8853 125.542 66.9439 125.908C65.4168 126.457 63.8073 126.74 62.1847 126.745ZM55.5949 116.288C55.5949 116.601 55.5949 116.915 55.5949 117.229C55.6877 118.198 56.0369 119.126 56.6068 119.916C57.1766 120.706 57.9465 121.331 58.8374 121.725C60.9276 122.512 63.2324 122.512 65.3226 121.725C66.0224 121.437 66.7037 121.105 67.3624 120.732C68.0562 120.342 68.772 119.993 69.5065 119.686C71.1722 118.975 72.9351 118.516 74.7365 118.327C78.0345 117.989 81.3663 118.255 84.569 119.111L86.6611 119.634C89.5129 120.498 92.4684 120.973 95.4475 121.046C96.9852 121.105 98.5128 120.771 99.8855 120.076C101.258 119.38 102.431 118.347 103.292 117.072C104.757 114.248 103.815 110.222 100.573 105.202C98.0216 101.276 95.1715 97.5532 92.0478 94.0653C89.3805 91.1372 85.8764 87.843 81.8493 88.4182C78.6114 89.2185 75.6264 90.8186 73.1676 93.0718L71.3372 94.4312C62.9169 100.444 55.1765 107.242 55.5949 116.131V116.288Z" fill="white"/>
<path d="M131.273 102.484C129.495 102.48 127.768 101.892 126.357 100.81C123.553 98.5021 121.692 95.2468 121.127 91.66V90.7188C121.127 89.9345 121.127 89.1502 120.761 88.4705C120.35 86.9477 119.734 85.4876 118.93 84.1305C118.342 83.3389 117.942 82.4236 117.76 81.4541C117.579 80.4845 117.621 79.4865 117.884 78.5358C118.16 77.8206 118.604 77.1816 119.177 76.6722C119.75 76.1629 120.436 75.7978 121.179 75.6076C122.246 75.2735 123.356 75.0974 124.474 75.0848C126.077 75.097 127.661 75.435 129.129 76.0783C133.478 78.2158 136.819 81.9689 138.438 86.5359C139.634 88.5996 140.166 90.9816 139.96 93.3579C139.754 95.7343 138.821 97.9895 137.288 99.8168C136.501 100.652 135.554 101.32 134.502 101.778C133.45 102.237 132.316 102.476 131.169 102.484H131.273ZM127.455 83.8691C127.789 84.7577 128.068 85.6656 128.292 86.588C128.292 87.5815 128.71 88.6273 128.867 89.5685V90.4574C129.016 92.0575 129.719 93.5553 130.855 94.6927H131.169C131.251 94.7273 131.34 94.7449 131.43 94.7449C131.52 94.7449 131.609 94.7273 131.691 94.6927C132.371 93.9607 132.162 91.9215 131.221 89.464C130.473 87.3627 129.172 85.5021 127.455 84.0783V83.8691Z" fill="white"/>
<path d="M131.273 101.124C129.837 101.105 128.445 100.629 127.298 99.7647C124.895 97.674 123.349 94.769 122.957 91.6079V90.7189C122.957 89.83 122.957 89.0457 122.539 88.2614C122.103 86.5981 121.415 85.0112 120.499 83.5555C120.057 82.9539 119.749 82.2647 119.596 81.5341C119.442 80.8036 119.447 80.0488 119.61 79.3203C119.803 78.8212 120.112 78.3755 120.513 78.0207C120.913 77.6659 121.393 77.4123 121.911 77.281C124.176 76.5999 126.612 76.7672 128.763 77.7515C132.627 79.7549 135.555 83.1888 136.922 87.3203C139.38 93.6471 137.863 97.1502 136.137 98.9803C134.863 100.31 133.114 101.081 131.273 101.124ZM124.422 81.5686C125.506 83.3304 126.301 85.2546 126.775 87.2679C127.021 88.2122 127.195 89.1736 127.298 90.1438V91.0326C127.517 93.0319 128.445 94.8867 129.913 96.2614C130.363 96.5637 130.908 96.6933 131.446 96.626C131.984 96.5587 132.48 96.2992 132.842 95.8953C134.359 94.2744 133.417 90.6666 132.842 89.098C131.817 86.061 129.664 83.5339 126.828 82.0392C126.074 81.694 125.25 81.5327 124.422 81.5686V81.5686Z" fill="white"/>
<path d="M28.7127 102.484C27.5662 102.471 26.434 102.228 25.3829 101.77C24.3319 101.312 23.3836 100.648 22.5936 99.8168C21.0739 97.9826 20.1494 95.7289 19.9439 93.356C19.7383 90.9831 20.2612 88.604 21.4429 86.5359C23.0619 81.9689 26.403 78.2158 30.7524 76.0783C32.2402 75.4391 33.84 75.1014 35.4593 75.0848C36.5598 75.101 37.652 75.277 38.7018 75.6076C39.4447 75.7978 40.1314 76.1629 40.7046 76.6722C41.2777 77.1816 41.7207 77.8206 41.9968 78.5358C42.2917 79.4798 42.3555 80.4807 42.1825 81.4544C42.0096 82.4281 41.605 83.3458 41.003 84.1305C40.1779 85.4768 39.5609 86.94 39.1727 88.4705C39.1727 89.1502 38.8588 89.9345 38.7542 90.7188V91.66C38.237 95.2636 36.3671 98.5353 33.5242 100.81C32.1455 101.877 30.456 102.465 28.7127 102.484ZM32.5828 83.8691C30.8153 85.2266 29.4429 87.0319 28.608 89.0979C27.6666 91.5032 27.5099 93.5424 28.1898 94.3267C28.359 94.3865 28.5435 94.3865 28.7127 94.3267C29.3692 93.8074 29.9123 93.1589 30.3081 92.4214C30.7039 91.6839 30.9441 90.8731 31.0139 90.0391V89.1503C31.0139 88.2091 31.3276 87.1633 31.5891 86.1698C31.871 85.4503 32.2031 84.7514 32.5828 84.0783V83.8691Z" fill="white"/>
<path d="M28.7125 101.124C27.7821 101.123 26.8617 100.932 26.0075 100.564C25.1533 100.195 24.3831 99.6562 23.7439 98.9803C22.018 97.1502 20.4492 93.7516 22.9073 87.3203C23.6211 85.2468 24.7369 83.3345 26.1907 81.6926C27.6445 80.0507 29.4078 78.7114 31.3798 77.7515C33.548 76.7636 36.0013 76.5964 38.2835 77.281C38.7908 77.4234 39.2578 77.6818 39.6481 78.0357C40.0384 78.3896 40.3412 78.8294 40.5323 79.3203C40.7212 80.0469 40.7393 80.8075 40.585 81.5423C40.4308 82.2771 40.1085 82.9661 39.6433 83.5556C38.7653 85.0242 38.0964 86.608 37.6559 88.2614C37.6559 89.0457 37.342 89.83 37.1851 90.7189C37.0282 91.6078 37.1851 91.3464 37.1851 91.6079C36.7658 94.7719 35.2034 97.6731 32.792 99.7647C31.6245 100.665 30.1867 101.144 28.7125 101.124V101.124ZM35.407 81.4641C34.6504 81.4694 33.9026 81.6296 33.2102 81.9347C30.3495 83.3985 28.1866 85.9371 27.1959 88.9935C26.4637 90.8236 25.47 94.2222 27.1959 95.7908C27.5491 96.1907 28.0357 96.4484 28.565 96.5158C29.0944 96.5831 29.6302 96.4556 30.0723 96.1569C31.5408 94.7822 32.4684 92.9274 32.6873 90.9281V90.9281V90.0392C32.6873 89.098 32.6872 88.1569 33.2102 87.1634C33.7304 85.165 34.5224 83.2474 35.5638 81.4641H35.407Z" fill="white"/>
<path d="M80.019 160C64.1927 160 48.7217 155.308 35.5627 146.518C22.4036 137.727 12.1474 125.233 6.09092 110.615C0.0344676 95.9966 -1.5499 79.9112 1.53765 64.3928C4.6252 48.8743 12.2461 34.6196 23.437 23.4314C34.6279 12.2432 48.886 4.62406 64.4081 1.53724C79.9303 -1.54957 96.0193 0.0345779 110.641 6.08959C125.262 12.1446 137.76 22.3984 146.552 35.5543C155.345 48.7103 160.038 64.1775 160.038 80.0001C160.024 101.213 151.589 121.553 136.586 136.553C121.582 151.553 101.237 159.986 80.019 160V160ZM80.019 7.73857C65.7088 7.72823 51.7171 11.9618 39.8143 19.9038C27.9115 27.8458 18.6327 39.1391 13.1516 52.3549C7.67058 65.5706 6.23366 80.1148 9.0229 94.1471C11.8121 108.179 18.7021 121.069 28.8209 131.186C38.9397 141.302 51.8328 148.191 65.8685 150.979C79.9042 153.768 94.4517 152.331 107.671 146.852C120.889 141.372 132.186 132.095 140.13 120.195C148.073 108.295 152.308 94.3068 152.298 80.0001C152.256 60.8527 144.626 42.5022 131.079 28.9678C117.531 15.4334 99.1709 7.81854 80.019 7.79091V7.73857Z" fill="white"/>
<path d="M80.0191 158.484C64.5032 158.484 49.3356 153.884 36.4346 145.266C23.5336 136.648 13.4783 124.398 7.54062 110.067C1.60292 95.7355 0.0494012 79.9654 3.07641 64.7512C6.10343 49.537 13.5753 35.562 24.5467 24.5931C35.5182 13.6243 49.4966 6.15453 64.7144 3.12824C79.9322 0.101948 95.7057 1.6551 110.041 7.59139C124.375 13.5277 136.628 23.5804 145.248 36.4783C153.868 49.3763 158.469 64.5402 158.469 80.0525C158.469 100.854 150.204 120.803 135.492 135.512C120.78 150.221 100.825 158.484 80.0191 158.484V158.484ZM80.0191 6.22244C65.3987 6.2121 51.1038 10.5378 38.943 18.6521C26.7822 26.7664 17.302 38.3048 11.7022 51.8072C6.10242 65.3095 4.63466 80.1691 7.48444 94.5058C10.3342 108.842 17.3735 122.012 27.7118 132.348C38.05 142.683 51.2225 149.721 65.5626 152.57C79.9026 155.419 94.7656 153.952 108.271 148.353C121.777 142.755 133.318 133.277 141.434 121.119C149.551 108.961 153.877 94.6695 153.867 80.0525C153.839 60.48 146.05 41.7172 132.207 27.8774C118.364 14.0376 99.5962 6.25011 80.0191 6.22244Z" fill="white"/>
<path d="M35.8776 63.2679C34.9619 63.27 34.0491 63.1647 33.1579 62.9542C32.1672 62.6959 31.3194 62.0556 30.7999 61.1736C30.2804 60.2916 30.1317 59.2398 30.3862 58.2484C30.596 57.4239 31.0752 56.6929 31.7479 56.1719C32.4207 55.6509 33.2486 55.3695 34.0996 55.3725C34.4113 55.3208 34.7293 55.3208 35.041 55.3725H35.8776C37.3318 55.2529 38.7507 54.8627 40.0616 54.2221C49.0076 50.4868 56.998 44.7859 63.4398 37.5424C64.1071 36.833 65.0203 36.4054 65.9926 36.3471C66.9648 36.2887 67.9225 36.6041 68.6698 37.2287C69.0534 37.5533 69.367 37.9525 69.5917 38.4018C69.8165 38.8512 69.9477 39.3415 69.9773 39.8431C70.0269 40.8778 69.6703 41.8909 68.9836 42.6666C61.7819 50.7756 52.8434 57.1562 42.8336 61.3333C40.6556 62.4053 38.2965 63.0614 35.8776 63.2679Z" fill="white"/>
<path d="M35.8776 61.6993C35.0864 61.6897 34.2981 61.6021 33.5241 61.4377C32.9459 61.2782 32.453 60.8992 32.1502 60.3815C31.8473 59.8639 31.7585 59.2486 31.9028 58.6665C31.9699 58.3719 32.0957 58.0938 32.2727 57.8489C32.4498 57.604 32.6745 57.3973 32.9332 57.2411C33.1919 57.0849 33.4796 56.9825 33.7788 56.94C34.078 56.8974 34.3828 56.9154 34.6748 56.9933C36.7443 57.2343 38.8384 56.852 40.6891 55.8953C49.84 52.0369 58.021 46.1973 64.6426 38.7973C64.8516 38.587 65.1002 38.4202 65.374 38.3063C65.6477 38.1924 65.9412 38.1338 66.2378 38.1338C66.5343 38.1338 66.8278 38.1924 67.1015 38.3063C67.3753 38.4202 67.6239 38.587 67.8329 38.7973C68.2608 39.2282 68.501 39.8109 68.501 40.4182C68.501 41.0255 68.2608 41.6081 67.8329 42.0391C60.7819 49.9824 52.0196 56.2218 42.206 60.2874C40.2052 61.1547 38.0575 61.6339 35.8776 61.6993Z" fill="white"/>
<path d="M124.16 63.2679C121.684 63.1531 119.252 62.5675 116.995 61.5425C106.988 57.3606 98.0504 50.9807 90.8451 42.8758C90.5018 42.4955 90.241 42.0483 90.0789 41.5624C89.9169 41.0764 89.8573 40.5623 89.9037 40.0522C89.9673 39.051 90.4173 38.1136 91.1588 37.4378C91.8653 36.8085 92.7754 36.4556 93.7215 36.4443C94.2665 36.4443 94.8051 36.561 95.3013 36.7865C95.7974 37.0119 96.2396 37.341 96.5979 37.7515C103.04 44.9951 111.03 50.6959 119.976 54.4313C121.305 55.0735 122.741 55.4636 124.212 55.5816H125.049C125.361 55.5269 125.679 55.5269 125.991 55.5816C126.906 55.6257 127.776 55.9931 128.446 56.6183C129.115 57.2435 129.541 58.086 129.648 58.9959C129.755 59.9058 129.535 60.824 129.028 61.5871C128.521 62.3503 127.76 62.9088 126.88 63.1634C125.981 63.3108 125.068 63.3459 124.16 63.2679Z" fill="white"/>
<path d="M124.16 61.6991C121.878 61.6015 119.638 61.0505 117.57 60.0782C107.765 55.9983 99.0055 49.7608 91.9436 41.8297C91.5279 41.3924 91.2959 40.8122 91.2959 40.2088C91.2959 39.6055 91.5279 39.0253 91.9436 38.5879C92.3747 38.1601 92.9574 37.92 93.5649 37.92C94.1723 37.92 94.7551 38.1601 95.1862 38.5879C101.788 46.0104 109.974 51.8538 119.139 55.6859C120.99 56.6426 123.085 57.0251 125.154 56.7841C125.743 56.6416 126.365 56.7374 126.884 57.0507C127.403 57.364 127.778 57.8694 127.926 58.4571C128.068 59.0463 127.973 59.668 127.659 60.1869C127.346 60.7058 126.84 61.08 126.252 61.2284C125.571 61.45 124.871 61.6077 124.16 61.6991Z" fill="white"/>
<path d="M66.2641 78.4315C65.6471 78.4301 65.0389 78.2871 64.4861 78.0133C61.4162 76.4223 58.0068 75.597 54.5489 75.608C51.9749 75.5782 49.4188 76.0397 47.0177 76.9675C46.5641 77.1297 46.0872 77.2181 45.6055 77.229C44.8281 77.223 44.07 76.9862 43.4275 76.5486C42.785 76.1111 42.287 75.4926 41.9968 74.7715C41.64 73.8144 41.6764 72.755 42.0977 71.8244C42.519 70.8939 43.2912 70.1677 44.246 69.8041C47.5797 68.5063 51.1286 67.8499 54.706 67.8695C59.427 67.8609 64.0779 69.0098 68.2515 71.2158C68.7073 71.4463 69.1115 71.7672 69.4393 72.1587C69.7672 72.5503 70.0121 73.0044 70.1588 73.4935C70.3056 73.9826 70.3514 74.4965 70.2932 75.0038C70.2351 75.5112 70.0741 76.0013 69.8205 76.4446C69.4996 77.0669 69.0113 77.5875 68.4108 77.9477C67.8103 78.308 67.1214 78.4936 66.4212 78.4839L66.2641 78.4315Z" fill="white"/>
<path d="M66.264 76.8627C65.897 76.8825 65.5325 76.7913 65.218 76.6012C62.3411 75.1097 59.1824 74.2411 55.9473 74.0519C52.7122 73.8627 49.4736 74.3572 46.4424 75.5032C46.1608 75.6131 45.8604 75.6665 45.5582 75.6603C45.256 75.6541 44.9578 75.5885 44.681 75.4671C44.4042 75.3457 44.1538 75.1709 43.9446 74.9528C43.7353 74.7347 43.5711 74.4775 43.4613 74.196C43.2553 73.6337 43.2765 73.0134 43.5207 72.4667C43.7648 71.9199 44.2126 71.4899 44.7688 71.2678C48.4148 69.8845 52.3117 69.2859 56.2049 69.5111C60.0982 69.7364 63.9003 70.7804 67.3624 72.575C67.8926 72.8632 68.2883 73.348 68.4644 73.925C68.6404 74.502 68.5828 75.1251 68.3038 75.66C68.1093 76.0303 67.8153 76.3391 67.455 76.5515C67.0947 76.764 66.6822 76.8717 66.264 76.8627V76.8627Z" fill="white"/>
<path d="M93.7217 78.4313C93.0238 78.4295 92.3395 78.239 91.741 77.88C91.1426 77.5211 90.6525 77.007 90.3224 76.3922C90.0874 75.9457 89.9431 75.4569 89.8982 74.9543C89.8533 74.4517 89.9085 73.9452 90.0607 73.4641C90.2025 72.9798 90.4431 72.5301 90.7671 72.1432C91.0911 71.7563 91.4918 71.4404 91.9437 71.2156C96.0963 69.0038 100.732 67.8542 105.437 67.8693C109.013 67.8608 112.56 68.5168 115.897 69.8039C116.851 70.1777 117.62 70.9096 118.041 71.8432C118.234 72.3073 118.333 72.8048 118.333 73.3073C118.333 73.8097 118.234 74.3073 118.041 74.7713C117.757 75.4965 117.261 76.1189 116.617 76.5574C115.973 76.9958 115.212 77.2299 114.433 77.2288C113.967 77.223 113.507 77.1344 113.073 76.9673C110.651 76.0487 108.079 75.5876 105.489 75.6078C102.048 75.5969 98.6557 76.4224 95.6045 78.0131C95.031 78.2813 94.4071 78.4238 93.7741 78.4313H93.7217Z" fill="white"/>
<path d="M93.7217 76.8627C93.3111 76.868 92.9072 76.7581 92.5559 76.5455C92.2046 76.3329 91.92 76.0262 91.7343 75.66C91.5815 75.3985 91.4847 75.1082 91.4495 74.8073C91.4144 74.5064 91.4419 74.2015 91.5303 73.9118C91.6187 73.6221 91.766 73.3537 91.9631 73.1237C92.1603 72.8937 92.4028 72.7068 92.6756 72.5751C96.1276 70.7785 99.9211 69.7332 103.806 69.5078C107.691 69.2825 111.58 69.8824 115.217 71.2679C115.779 71.4828 116.232 71.912 116.477 72.4612C116.723 73.0103 116.739 73.6344 116.524 74.196C116.309 74.7576 115.88 75.211 115.331 75.4561C114.782 75.7013 114.157 75.7181 113.596 75.5032C110.564 74.3572 107.326 73.8627 104.091 74.0519C100.856 74.2411 97.6969 75.1097 94.8201 76.6012C94.4839 76.7848 94.1046 76.8752 93.7217 76.8627V76.8627Z" fill="white"/>
</svg>
