<svg width="160" height="160" viewBox="0 0 160 160" fill="none" xmlns="http://www.w3.org/2000/svg">
<g clip-path="url(#clip0_139_72)">
<path d="M79.7925 1.52588e-05C63.97 1.52588e-05 48.5028 4.69193 35.3469 13.4824C22.1909 22.273 11.9373 34.7671 5.88225 49.3852C-0.172757 64.0033 -1.75699 80.0887 1.32982 95.6072C4.41664 111.126 12.0356 125.38 23.2238 136.568C34.412 147.757 48.6668 155.376 64.1853 158.463C79.7037 161.55 95.789 159.965 110.407 153.91C125.025 147.855 137.52 137.602 146.31 124.446C155.101 111.29 159.793 95.8225 159.793 80C159.779 58.7869 151.346 38.4465 136.346 23.4466C121.346 8.44662 101.006 0.0137766 79.7925 1.52588e-05V1.52588e-05ZM79.7925 151.325C65.6836 151.335 51.8887 147.16 40.1526 139.329C28.4165 131.498 19.2663 120.363 13.8599 107.331C8.45358 94.2988 7.03373 79.9562 9.77994 66.1171C12.5262 52.278 19.3152 39.5643 29.288 29.5842C39.2609 19.604 51.9697 12.8059 65.8067 10.0496C79.6438 7.29328 93.9875 8.70275 107.023 14.0996C120.059 19.4965 131.202 28.6383 139.041 40.3687C146.881 52.0991 151.065 65.8911 151.065 80C151.038 98.899 143.522 117.017 130.163 130.385C116.804 143.754 98.6915 151.283 79.7925 151.325Z" fill="black"/>
<path d="M32.4154 70.8051C33.4592 70.7991 34.4687 70.4321 35.2725 69.7662C38.8035 66.7861 43.227 65.0678 47.8439 64.8831C51.9898 64.9671 55.94 66.6627 58.8568 69.6104C59.6485 70.3822 60.7122 70.8113 61.8179 70.8051C63.0111 70.7908 64.1504 70.3054 64.987 69.4545C65.3938 69.0491 65.7163 68.5673 65.9366 68.0369C66.1568 67.5065 66.2701 66.9379 66.2701 66.3636C66.2701 65.7893 66.1568 65.2206 65.9366 64.6902C65.7163 64.1597 65.3938 63.6781 64.987 63.2727C60.5357 58.8101 54.5103 56.2731 48.2075 56.2077C41.4692 56.472 34.9983 58.9145 29.766 63.1687C28.9025 63.9293 28.3746 65.0001 28.2968 66.1482C28.2189 67.2962 28.5974 68.4286 29.3504 69.2987C29.7356 69.7407 30.2053 70.1016 30.7315 70.3602C31.2577 70.6189 31.8301 70.7701 32.4154 70.8051V70.8051Z" fill="black"/>
<path d="M98.1304 70.8051C99.1757 70.8079 100.188 70.4398 100.987 69.7662C104.518 66.7861 108.942 65.0678 113.559 64.8831C117.705 64.9671 121.655 66.6627 124.572 69.6104C125.369 70.3729 126.429 70.8004 127.533 70.8051C128.407 70.8077 129.262 70.5476 129.987 70.0586C130.712 69.5695 131.273 68.8739 131.597 68.0621C131.922 67.2503 131.995 66.3598 131.808 65.5058C131.62 64.6518 131.181 63.8738 130.546 63.2727C126.091 58.8148 120.068 56.2786 113.766 56.2077C107.02 56.5083 100.543 58.9461 95.273 63.1687C94.61 63.7533 94.1405 64.5256 93.9261 65.3831C93.7116 66.2406 93.7625 67.1428 94.0722 67.9707C94.382 68.7985 94.9358 69.5128 95.6604 70.0189C96.385 70.5251 97.2465 70.7992 98.1304 70.8051V70.8051Z" fill="black"/>
<path d="M139.273 85.8702C138.843 85.7911 138.403 85.7911 137.974 85.8702C137.05 85.8607 136.147 86.1483 135.399 86.6907C134.65 87.2332 134.096 88.0018 133.818 88.8831C130.892 97.301 125.621 104.707 118.627 110.229C111.632 115.752 103.205 119.16 94.3374 120.052C90.0703 120.659 85.7646 120.955 81.4544 120.935C72.6752 120.935 50.805 119.74 36.8829 108.987C33.9719 106.832 31.5439 104.092 29.7546 100.943C27.9654 97.7936 26.8544 94.3052 26.4933 90.7013C26.3499 89.5662 25.7716 88.531 24.8801 87.8139C23.9886 87.0969 22.8536 86.7539 21.7142 86.8572C21.1445 86.9109 20.592 87.0815 20.0914 87.3586C19.5908 87.6357 19.153 88.0133 18.8051 88.4676C18.0901 89.3605 17.7544 90.4983 17.87 91.6363C18.3686 96.4148 19.8599 101.036 22.2484 105.205C24.6369 109.374 27.8698 112.998 31.7401 115.844C41.2298 122.575 52.244 126.842 63.792 128.26C69.6845 129.201 75.6428 129.67 81.6101 129.662C86.3719 129.666 91.1284 129.336 95.8441 128.675C106.398 127.611 116.422 123.526 124.714 116.911C133.006 110.296 139.215 101.43 142.597 91.3766C142.785 90.7964 142.845 90.1826 142.775 89.5768C142.705 88.971 142.505 88.3873 142.19 87.8653C141.875 87.3433 141.452 86.895 140.948 86.5507C140.445 86.2065 139.873 85.9745 139.273 85.8702V85.8702Z" fill="black"/>
</g>
<defs>
<clipPath id="clip0_139_72">
<rect width="160" height="160" fill="white"/>
</clipPath>
</defs>
</svg>
