<svg width="230" height="230" viewBox="0 0 230 230" fill="none" xmlns="http://www.w3.org/2000/svg">
<path d="M61.8702 112.75C52.6703 112.75 45.3872 102.326 45.3872 88.989C45.3872 75.6522 53.0536 65.3047 61.8702 65.3047C70.6869 65.3047 78.3537 75.7289 78.3537 88.989C78.3537 102.249 71.1469 112.75 61.8702 112.75ZM61.8702 77.0319C60.7202 77.0319 57.117 81.2475 57.117 88.989C57.117 96.7305 60.7202 101.023 61.8702 101.023C63.0202 101.023 66.6235 96.8072 66.6235 88.989C66.6235 81.1709 63.4802 77.0319 61.8702 77.0319Z" fill="white"/>
<path d="M168.053 112.75C158.776 112.75 151.569 102.326 151.569 88.989C151.569 75.6522 158.776 65.3047 168.053 65.3047C177.33 65.3047 184.536 75.7289 184.536 88.989C184.536 102.249 177.253 112.75 168.053 112.75ZM168.053 77.0319C166.826 77.0319 163.3 81.2475 163.3 88.989C163.3 96.7305 166.826 101.023 168.053 101.023C169.28 101.023 172.806 96.8072 172.806 88.989C172.806 81.1709 169.203 77.0319 168.053 77.0319Z" fill="white"/>
<path d="M115.46 181.733C104.696 181.978 94.0728 179.245 84.7647 173.834C75.4565 168.424 67.8253 160.547 62.7131 151.074C61.274 148.21 60.5913 145.026 60.731 141.824C60.8706 138.623 61.8275 135.51 63.5105 132.783C65.1935 130.055 67.5463 127.804 70.3456 126.243C73.145 124.681 76.2978 123.862 79.5032 123.863H151.416C154.622 123.862 157.774 124.681 160.574 126.243C163.373 127.804 165.726 130.055 167.409 132.783C169.092 135.51 170.049 138.623 170.188 141.824C170.328 145.026 169.645 148.21 168.206 151.074C163.094 160.547 155.463 168.424 146.155 173.834C136.847 179.245 126.224 181.978 115.46 181.733ZM79.5032 135.744C78.3017 135.763 77.1242 136.085 76.0807 136.681C75.0371 137.276 74.1609 138.126 73.5337 139.151C72.9065 140.175 72.5485 141.342 72.493 142.542C72.4375 143.742 72.6865 144.937 73.2164 146.015C77.5195 153.378 83.6763 159.485 91.0743 163.73C98.4723 167.975 106.853 170.208 115.383 170.208C123.913 170.208 132.294 167.975 139.692 163.73C147.09 159.485 153.247 153.378 157.55 146.015C158.155 144.966 158.474 143.776 158.474 142.566C158.474 141.355 158.155 140.165 157.55 139.116C156.923 138.091 156.044 137.244 154.998 136.654C153.951 136.063 152.771 135.75 151.57 135.744H79.5032Z" fill="white"/>
<path d="M115 229.945C92.255 229.945 70.0213 223.202 51.1096 210.569C32.198 197.936 17.458 179.979 8.75386 158.971C0.049774 137.962 -2.22754 114.845 2.20977 92.5426C6.64707 70.24 17.5997 49.7539 33.6827 33.6747C49.7658 17.5955 70.2568 6.64549 92.5646 2.20924C114.872 -2.22701 137.995 0.0497622 159.009 8.75178C180.022 17.4538 197.983 32.19 210.619 51.0972C223.255 70.0044 230 92.2332 230 114.973C230 145.465 217.884 174.709 196.317 196.271C174.751 217.832 145.5 229.945 115 229.945ZM115 11.7271C94.5749 11.7271 74.6088 17.7824 57.6261 29.1272C40.6434 40.472 27.4071 56.5968 19.5908 75.4625C11.7745 94.3281 9.72976 115.087 13.7145 135.115C17.6992 155.143 27.5343 173.539 41.9769 187.978C56.4195 202.418 74.8209 212.251 94.8533 216.234C114.886 220.218 135.65 218.174 154.52 210.359C173.39 202.545 189.519 189.312 200.866 172.333C212.214 155.354 218.27 135.393 218.27 114.973C218.23 87.6027 207.336 61.3653 187.978 42.0118C168.62 22.6583 142.376 11.7677 115 11.7271Z" fill="white"/>
</svg>
