<svg width="161" height="160" viewBox="0 0 161 160" fill="none" xmlns="http://www.w3.org/2000/svg">
<path d="M43.0503 78.4535C36.6488 78.4535 31.5811 71.2001 31.5811 61.9201C31.5811 52.6401 36.9155 45.4401 43.0503 45.4401C49.1851 45.4401 54.5198 52.6934 54.5198 61.9201C54.5198 71.1468 49.5052 78.4535 43.0503 78.4535ZM43.0503 53.6001C42.2501 53.6001 39.7429 56.5334 39.7429 61.9201C39.7429 67.3068 42.2501 70.2935 43.0503 70.2935C43.8505 70.2935 46.3577 67.3601 46.3577 61.9201C46.3577 56.4801 44.1706 53.6001 43.0503 53.6001Z" fill="black"/>
<path d="M116.934 78.4535C110.479 78.4535 105.465 71.2001 105.465 61.9201C105.465 52.6401 110.479 45.4401 116.934 45.4401C123.389 45.4401 128.403 52.6934 128.403 61.9201C128.403 71.1468 123.336 78.4535 116.934 78.4535ZM116.934 53.6001C116.081 53.6001 113.627 56.5334 113.627 61.9201C113.627 67.3068 116.081 70.2935 116.934 70.2935C117.788 70.2935 120.242 67.3601 120.242 61.9201C120.242 56.4801 117.734 53.6001 116.934 53.6001Z" fill="black"/>
<path d="M80.339 126.453C72.8491 126.624 65.4575 124.722 58.9807 120.957C52.504 117.192 47.194 111.712 43.6369 105.12C42.6355 103.127 42.1605 100.912 42.2576 98.6838C42.3548 96.456 43.0207 94.2902 44.1917 92.3924C45.3627 90.4946 46.9999 88.9282 48.9477 87.8418C50.8955 86.7555 53.0893 86.1855 55.3197 86.1862H105.358C107.588 86.1855 109.782 86.7555 111.73 87.8418C113.678 88.9282 115.315 90.4946 116.486 92.3924C117.657 94.2902 118.323 96.456 118.42 98.6838C118.517 100.912 118.042 103.127 117.041 105.12C113.484 111.712 108.174 117.192 101.697 120.957C95.2202 124.722 87.8289 126.624 80.339 126.453V126.453ZM55.3197 94.453C54.4837 94.4662 53.6644 94.6903 52.9382 95.1047C52.2121 95.5191 51.6024 96.1104 51.166 96.8234C50.7296 97.5364 50.4805 98.3481 50.4419 99.1831C50.4032 100.018 50.5765 100.849 50.9453 101.6C53.9394 106.723 58.2234 110.973 63.3711 113.926C68.5187 116.88 74.3505 118.434 80.2856 118.434C86.2207 118.434 92.0521 116.88 97.1998 113.926C102.347 110.973 106.632 106.723 109.626 101.6C110.047 100.87 110.269 100.042 110.269 99.1996C110.269 98.357 110.047 97.5292 109.626 96.7995C109.19 96.0864 108.578 95.4966 107.85 95.086C107.122 94.6753 106.301 94.4574 105.465 94.453H55.3197Z" fill="black"/>
<path d="M80.0189 160C64.1926 160 48.722 155.308 35.563 146.518C22.4039 137.727 12.1475 125.233 6.09109 110.615C0.0346336 95.9966 -1.54996 79.9112 1.53759 64.3927C4.62515 48.8742 12.2462 34.6196 23.437 23.4314C34.6279 12.2432 48.8859 4.62405 64.4081 1.53723C79.9302 -1.54959 96.0195 0.0346254 110.641 6.08964C125.263 12.1446 137.76 22.3984 146.552 35.5543C155.345 48.7103 160.038 64.1775 160.038 80C160.038 101.217 151.608 121.566 136.601 136.569C121.595 151.571 101.241 160 80.0189 160ZM80.0189 8.15995C65.8069 8.15995 51.9141 12.3733 40.0972 20.2672C28.2804 28.1611 19.0703 39.3811 13.6316 52.5081C8.19293 65.6352 6.77013 80.0797 9.54276 94.0153C12.3154 107.951 19.1589 120.752 29.2083 130.799C39.2577 140.846 52.0616 147.688 66.0006 150.46C79.9395 153.232 94.3875 151.809 107.518 146.372C120.648 140.934 131.87 131.726 139.766 119.912C147.662 108.098 151.876 94.2086 151.876 80C151.848 60.9555 144.268 42.6991 130.799 29.2325C117.329 15.766 99.0679 8.18816 80.0189 8.15995Z" fill="black"/>
</svg>
