<svg width="413" height="415" viewBox="0 0 413 415" fill="none" xmlns="http://www.w3.org/2000/svg">
<path d="M206.498 321.025C171.407 321.025 139.015 302.119 125.518 273.76C121.469 264.307 121.469 253.503 126.867 245.401C132.266 235.948 141.714 231.897 152.511 231.897H261.835C272.632 231.897 282.08 237.298 287.479 245.401C292.878 254.854 292.877 265.657 288.828 273.76C272.632 303.469 241.59 321.025 206.498 321.025ZM151.162 250.803C147.113 250.803 144.413 252.153 143.063 254.854C141.714 257.555 141.714 261.606 143.063 264.307C153.861 285.914 179.505 300.768 206.498 300.768C233.492 300.768 259.136 285.914 269.933 264.307C271.283 261.606 271.283 257.555 269.933 254.854C268.583 252.153 264.534 250.803 261.835 250.803H151.162Z" fill="black"/>
<path d="M133.619 211.64C128.221 211.64 122.822 210.289 116.073 207.589C103.926 202.187 94.4788 196.785 86.3808 190.033C83.6814 187.332 80.9822 185.982 78.2829 183.281C68.8352 173.828 53.9888 154.922 60.7371 134.666C66.1358 119.811 80.9821 114.409 93.1291 114.409C94.4788 114.409 95.8284 114.409 95.8284 114.409C101.227 114.409 106.626 115.76 113.374 118.461C116.073 109.008 121.472 100.905 129.57 96.8537C133.619 94.1529 139.018 92.8025 143.067 92.8025C151.165 92.8025 160.613 96.8537 167.361 103.606C178.158 115.76 180.858 133.315 174.109 154.922C171.41 165.725 166.011 175.178 161.962 184.631L160.613 187.332C157.913 192.734 155.214 196.785 152.515 200.836C148.466 208.939 141.717 211.64 133.619 211.64ZM94.4789 133.315C89.0802 133.315 82.3318 134.666 80.9822 140.067C78.2828 148.17 86.3808 160.324 94.4789 168.426C95.8285 169.777 98.5278 172.478 99.8775 173.828C106.626 179.23 116.074 184.631 125.521 188.683C129.57 190.033 132.27 191.383 133.619 191.383C136.319 191.383 137.668 190.033 137.668 190.033C140.368 187.332 141.717 184.631 143.067 180.58L144.417 176.529C148.466 168.426 152.515 158.973 155.214 149.52C159.263 134.666 159.263 125.213 152.515 117.11C149.815 114.409 145.766 113.059 143.067 113.059C141.717 113.059 140.368 113.059 139.018 114.409C133.619 117.11 132.27 125.213 132.27 129.264C132.27 133.315 129.57 137.367 125.521 140.067C124.172 141.418 121.472 141.418 120.123 141.418C117.423 141.418 114.724 140.067 113.374 138.717C112.024 137.366 110.675 137.366 109.325 136.016C105.276 133.315 101.227 131.965 97.1782 131.965C95.8285 133.315 94.4789 133.315 94.4789 133.315Z" fill="black"/>
<path d="M278.031 211.639C269.933 211.639 263.184 208.939 259.135 203.537C255.086 199.486 252.387 194.084 251.037 190.033L249.688 187.332C244.289 177.879 240.24 167.075 237.54 157.622C230.792 136.016 233.491 118.46 244.289 106.306C251.037 99.5542 259.135 95.5029 268.583 95.5029C273.982 95.5029 278.031 96.8534 282.08 99.5542C290.178 103.605 295.576 111.708 298.276 121.161C303.674 118.46 310.423 117.11 315.822 117.11C317.171 117.11 318.521 117.11 318.521 117.11C330.668 117.11 346.864 122.511 350.913 137.366C357.661 157.622 342.815 176.528 333.367 185.981C330.668 188.682 327.969 190.033 325.269 192.733C317.171 199.486 306.374 206.238 295.576 211.639C288.828 210.289 283.429 211.639 278.031 211.639ZM268.583 113.058C265.884 113.058 261.835 114.409 259.135 117.11C252.387 123.862 251.037 134.665 256.436 149.52C259.135 158.973 263.184 168.426 267.233 176.528L268.583 180.58C269.933 184.631 272.632 187.332 273.982 190.033C273.982 191.383 275.331 191.383 278.031 191.383C280.73 191.383 283.429 190.033 286.129 188.682C295.576 184.631 305.024 179.229 311.772 173.828C314.472 172.477 315.821 169.776 317.171 168.426C325.269 160.323 333.367 148.17 330.668 140.067C329.318 136.016 322.57 133.315 315.822 133.315H314.472C310.423 133.315 306.374 134.665 302.325 137.366C300.975 138.716 298.276 138.717 296.926 140.067C294.227 141.417 292.877 142.768 290.178 142.768C287.478 142.768 286.129 142.768 284.779 141.417C280.73 138.717 278.031 134.665 278.031 130.614C278.031 126.563 276.681 118.46 271.282 115.759C271.282 114.409 269.933 113.058 268.583 113.058Z" fill="black"/>
<path d="M206.5 414.203C93.1275 414.203 0 321.024 0 207.588C0 94.1526 91.7778 0.973267 206.5 0.973267C319.873 0.973267 413 94.1526 413 207.588C413 321.024 319.873 414.203 206.5 414.203ZM206.5 21.2296C103.925 21.2296 20.2451 104.956 20.2451 207.588C20.2451 310.221 103.925 393.947 206.5 393.947C309.075 393.947 392.755 310.221 392.755 207.588C392.755 104.956 309.075 21.2296 206.5 21.2296Z" fill="black"/>
</svg>
