<svg width="160" height="161" viewBox="0 0 160 161" fill="none" xmlns="http://www.w3.org/2000/svg">
<path d="M108.758 117.712L85.7511 114.573C83.6596 114.05 81.568 114.05 79.4765 114.05C77.385 114.05 75.2936 114.05 73.2021 114.573L50.7184 117.712C47.5811 117.712 44.4439 116.143 42.8753 114.05C40.7838 111.434 40.261 108.295 41.3067 105.679C45.4897 89.4612 61.6988 77.9515 80.5224 77.9515C99.3459 77.9515 115.032 89.4612 119.738 105.679C120.784 108.818 119.738 111.957 118.169 114.05C115.032 116.666 112.418 117.712 108.758 117.712C108.758 117.712 109.28 117.712 108.758 117.712ZM79.4765 106.726C82.0909 106.726 84.1825 106.726 86.7969 107.249L109.803 110.388C110.326 110.388 110.849 109.865 111.372 109.342C111.895 108.818 111.895 108.295 111.895 107.772C108.235 94.6929 95.6857 85.799 80.5224 85.799C65.359 85.799 52.2871 94.6929 49.1498 107.772C49.1498 108.295 49.1498 108.818 49.6727 109.342C50.1955 109.865 50.7184 110.388 51.2413 110.388L73.2021 107.249C74.7707 106.726 77.385 106.726 79.4765 106.726Z" fill="white"/>
<path d="M109.279 116.143L85.75 113.004C81.567 112.48 77.384 112.48 72.6781 113.004L50.1944 116.143C47.5801 116.143 44.9657 115.096 43.397 113.004C41.8284 110.911 41.3055 108.295 41.8284 105.679C46.0114 89.9842 61.1748 78.9977 79.4754 78.9977C97.2531 78.9977 112.939 89.9842 117.122 105.679C117.645 108.295 117.122 110.911 115.554 113.004C114.508 115.096 111.894 116.143 109.279 116.143ZM79.4754 108.295C81.5669 108.295 84.1813 108.295 86.2728 108.818L109.279 111.957C110.325 111.957 111.371 111.434 112.417 110.388C112.939 109.341 113.462 108.295 112.939 107.249C109.279 93.6464 95.6845 84.2294 79.9983 84.2294C64.312 84.2294 50.7173 93.6464 47.0572 107.249C46.5343 108.295 47.0572 109.341 47.5801 110.388C48.1029 111.434 49.1486 111.957 50.7173 111.957L72.6781 108.818C74.7696 108.295 77.3839 108.295 79.4754 108.295Z" fill="white"/>
<path d="M80 160.089C36.0784 160.089 0 123.99 0 80.0445C0 36.0985 35.5556 0 80 0C124.444 0 160 36.0985 160 80.0445C160 123.99 123.922 160.089 80 160.089ZM80 7.8475C40.2614 7.8475 7.84314 40.2838 7.84314 80.0445C7.84314 119.805 40.2614 152.241 80 152.241C119.739 152.241 152.157 119.805 152.157 80.0445C152.157 40.2838 119.739 7.8475 80 7.8475Z" fill="white"/>
<path d="M79.9995 158.52C36.6008 158.52 1.56818 123.467 1.56818 80.0446C1.56818 36.6218 36.6008 1.56964 79.9995 1.56964C123.398 1.56964 158.431 36.6218 158.431 80.0446C158.431 123.467 123.398 158.52 79.9995 158.52ZM79.9995 6.27814C39.2152 6.27814 6.27402 39.2376 6.27402 80.0446C6.27402 120.852 39.2152 153.811 79.9995 153.811C120.784 153.811 153.725 120.852 153.725 80.0446C153.725 39.2376 120.784 6.27814 79.9995 6.27814Z" fill="white"/>
<path d="M37.1249 73.2433C35.0334 73.2433 32.419 72.7202 30.3275 72.197C29.2817 72.197 28.236 71.1507 27.7131 70.6275C27.1902 69.5812 27.1902 68.5348 27.1902 67.4885C27.7131 65.919 29.2817 64.3495 30.8504 64.3495C31.3732 64.3495 31.3732 64.3495 31.8961 64.3495C33.4647 64.8727 35.0333 64.8727 36.6019 64.8727C41.3078 64.8727 46.0137 63.3032 50.1967 60.6873C55.4255 57.0252 59.6084 51.2703 61.177 44.4692C61.6999 42.8997 63.2686 41.8533 64.8372 41.8533C65.3601 41.8533 65.3601 41.8533 65.883 41.8533C67.9745 42.3765 69.0202 44.4692 68.4973 46.5618C65.883 54.9325 61.1771 62.2568 54.3797 66.9653C50.1967 71.1507 43.9222 73.2433 37.1249 73.2433Z" fill="white"/>
<path d="M37.1238 71.6735C35.0323 71.6735 32.9408 71.6735 30.8493 71.1503C29.8036 70.6272 28.7578 69.5808 29.2807 68.5345C29.8036 67.4882 30.8493 66.4418 31.8951 66.965C38.1696 68.5345 45.4898 66.965 51.7643 62.7797C57.516 59.1175 61.6989 52.8395 63.7904 45.5152C64.3133 44.4688 65.359 43.4225 66.4048 43.9457C67.4505 44.4688 68.4963 45.5152 67.9734 46.5615C65.8819 54.9322 60.6532 61.7333 54.3787 65.9187C49.15 70.104 43.3983 71.6735 37.1238 71.6735Z" fill="white"/>
<path d="M122.354 73.2433C116.079 73.2433 109.805 71.1507 104.576 67.4885C97.7784 62.78 93.0725 55.4557 90.4582 47.085C89.9353 46.0387 90.4582 44.9923 90.9811 43.946C91.5039 42.8997 92.5497 42.3765 93.0725 41.8533C93.5954 41.8533 93.5954 41.8533 94.1183 41.8533C95.6869 41.8533 97.2555 42.8997 97.7784 44.4692C99.8699 51.2703 103.53 57.0252 108.759 60.6873C112.942 63.3032 117.648 64.8727 122.354 64.8727C123.922 64.8727 125.491 64.8727 127.059 64.3495C127.582 64.3495 127.582 64.3495 128.105 64.3495C129.674 64.3495 131.242 65.3958 131.765 67.4885C131.765 68.5348 131.765 69.5812 131.242 70.6275C130.72 71.6738 129.674 72.197 128.628 72.197C127.059 73.2433 124.968 73.2433 122.354 73.2433Z" fill="white"/>
<path d="M122.354 71.6738C116.602 71.6738 110.328 69.5811 105.099 66.4421C98.8242 61.7336 94.1183 54.9325 91.5039 47.085C90.9811 46.0386 92.0268 44.4691 93.0726 44.4691C94.1183 43.946 95.687 44.9923 95.687 46.0386C97.7785 53.363 101.961 59.1178 107.19 63.3031C112.942 67.4885 120.262 69.058 127.06 67.4885C128.105 66.9653 129.674 68.0116 129.674 69.058C130.197 70.1043 129.151 71.6738 128.105 71.6738C126.537 71.6738 124.445 71.6738 122.354 71.6738Z" fill="white"/>
</svg>
