<svg width="413" height="413" viewBox="0 0 413 413" fill="none" xmlns="http://www.w3.org/2000/svg">
<path d="M162.772 297.532C158.13 297.486 153.543 296.523 149.275 294.698C144.573 292.687 140.485 289.468 137.428 285.369C134.37 281.269 132.45 276.435 131.864 271.355C131.797 270.141 131.797 268.925 131.864 267.711C130.379 238.565 152.649 218.325 176.808 200.244L180.857 197.275C188.993 189.875 198.969 184.795 209.74 182.567C211.222 182.434 212.713 182.434 214.194 182.567C220.958 183.214 227.512 185.265 233.438 188.587C239.364 191.91 244.531 196.431 248.611 201.863C256.893 211.054 264.43 220.891 271.15 231.279C282.352 248.686 284.647 263.798 278.708 275.942C275.355 281.669 270.537 286.4 264.749 289.648C258.962 292.897 252.413 294.547 245.776 294.429H244.292C236.242 294.114 228.263 292.799 220.537 290.515L214.869 289.031C210.452 287.931 205.924 287.343 201.372 287.277H196.649C193.777 287.628 190.964 288.353 188.281 289.436L184.366 291.46C182.103 292.697 179.758 293.779 177.348 294.698C172.725 296.597 167.77 297.561 162.772 297.532ZM211.63 203.078C204.462 205.101 197.858 208.748 192.33 213.737L187.74 217.246C168.035 231.549 149.95 247.471 150.895 267.172C150.895 267.846 150.895 268.521 150.895 269.33C151.041 270.956 151.618 272.514 152.567 273.842C153.516 275.17 154.803 276.222 156.294 276.887C158.323 277.653 160.468 278.064 162.637 278.101C164.854 278.116 167.053 277.704 169.115 276.887C170.651 276.278 172.139 275.556 173.569 274.728C175.459 273.784 177.213 272.704 179.237 271.894C183.558 270.124 188.098 268.944 192.734 268.386C195.161 268.242 197.596 268.242 200.023 268.386C206.261 268.465 212.467 269.28 218.513 270.815L223.777 272.164C230.228 274.093 236.891 275.226 243.617 275.538C246.739 275.775 249.869 275.205 252.706 273.881C255.543 272.558 257.99 270.526 259.813 267.981C262.648 262.584 259.813 254.488 253.334 243.153C247.201 233.608 240.295 224.582 232.685 216.166C227.421 210.364 220.403 203.482 213.114 203.482L211.63 203.078Z" fill="white"/>
<path d="M206.5 412.902C165.658 412.902 125.734 400.793 91.7749 378.108C57.8161 355.423 31.3485 323.18 15.719 285.456C0.0895597 247.732 -3.99994 206.222 3.9679 166.174C11.9357 126.127 31.6034 89.3405 60.483 60.4679C89.3625 31.5952 126.157 11.933 166.214 3.96706C206.271 -3.99889 247.791 0.0892328 285.524 15.715C323.257 31.3408 355.508 57.8021 378.199 91.7527C400.889 125.703 413 165.619 413 206.451C412.964 261.194 391.197 313.685 352.478 352.394C313.76 391.103 261.257 412.866 206.5 412.902V412.902ZM206.5 19.9704C169.571 19.9437 133.463 30.8691 102.747 51.3644C72.03 71.8597 48.0847 101.004 33.9401 135.109C19.7956 169.214 16.0874 206.747 23.2854 242.959C30.4834 279.172 48.2638 312.436 74.3767 338.543C100.49 364.649 133.762 382.426 169.983 389.622C206.204 396.818 243.746 393.111 277.859 378.97C311.972 364.829 341.123 340.889 361.624 310.179C382.124 279.47 393.052 243.371 393.025 206.451C392.918 157.039 373.227 109.683 338.266 74.7553C303.305 39.8281 255.924 20.1768 206.5 20.1055V19.9704Z" fill="white"/>
<path d="M109.055 333.695C106.406 333.695 103.865 332.643 101.992 330.77C100.119 328.898 99.0666 326.358 99.0666 323.71V152.072H73.5585C70.9096 152.072 68.3693 151.02 66.4962 149.148C64.6232 147.275 63.5702 144.735 63.5702 142.087C63.5702 139.439 64.6232 136.899 66.4962 135.026C68.3693 133.154 70.9096 132.102 73.5585 132.102H143.201C145.85 132.102 148.39 133.154 150.263 135.026C152.136 136.899 153.189 139.439 153.189 142.087C153.189 144.735 152.136 147.275 150.263 149.148C148.39 151.02 145.85 152.072 143.201 152.072H118.907V323.71C118.907 326.335 117.874 328.854 116.03 330.723C114.186 332.592 111.68 333.66 109.055 333.695V333.695Z" fill="white"/>
<path d="M304.217 333.695C301.591 333.66 299.086 332.592 297.242 330.723C295.398 328.854 294.364 326.335 294.364 323.71V152.072H268.855C266.207 152.072 263.666 151.02 261.793 149.148C259.92 147.275 258.868 144.735 258.868 142.087C258.868 139.439 259.92 136.899 261.793 135.026C263.666 133.154 266.207 132.102 268.855 132.102H338.499C341.148 132.102 343.688 133.154 345.561 135.026C347.434 136.899 348.486 139.439 348.486 142.087C348.486 144.735 347.434 147.275 345.561 149.148C343.688 151.02 341.148 152.072 338.499 152.072H314.474V323.71C314.475 325.044 314.208 326.365 313.689 327.594C313.171 328.824 312.411 329.937 311.455 330.868C310.498 331.798 309.365 332.528 308.122 333.014C306.879 333.5 305.551 333.731 304.217 333.695Z" fill="white"/>
</svg>
